<svg width="20" height="20" viewBox="0 0 20 20" fill="none" xmlns="http://www.w3.org/2000/svg">
<path d="M17.985 5.15504C17.7934 4.43837 17.2284 3.87337 16.5117 3.68171C15.2117 3.33337 10 3.33337 10 3.33337C10 3.33337 4.78835 3.33337 3.48835 3.68171C2.77169 3.87337 2.20669 4.43837 2.01502 5.15504C1.66669 6.45504 1.66669 10 1.66669 10C1.66669 10 1.66669 13.545 2.01502 14.845C2.20669 15.5617 2.77169 16.1267 3.48835 16.3184C4.78835 16.6667 10 16.6667 10 16.6667C10 16.6667 15.2117 16.6667 16.5117 16.3184C17.2292 16.1267 17.7934 15.5617 17.985 14.845C18.3334 13.545 18.3334 10 18.3334 10C18.3334 10 18.3334 6.45504 17.985 5.15504ZM8.33335 12.8867V7.11337L13.3334 10L8.33335 12.8867Z" fill="#181D27"/>
</svg>
