<svg width="20" height="20" viewBox="0 0 20 20" fill="none" xmlns="http://www.w3.org/2000/svg">
<path d="M10 1.66663C7.78988 1.66663 5.67027 2.5446 4.10746 4.1074C2.54466 5.67021 1.66669 7.78982 1.66669 9.99996C1.66669 12.2101 2.54466 14.3297 4.10746 15.8925C5.67027 17.4553 7.78988 18.3333 10 18.3333C12.2102 18.3333 14.3298 17.4553 15.8926 15.8925C17.4554 14.3297 18.3334 12.2101 18.3334 9.99996C18.3334 7.78982 17.4554 5.67021 15.8926 4.1074C14.3298 2.5446 12.2102 1.66663 10 1.66663Z" fill="#181D27"/>
<path d="M10.0683 15.4167C10.0404 15.4167 10.0129 15.4159 9.9854 15.4146C9.9679 15.4159 9.94998 15.4167 9.93123 15.4167C9.28957 15.4167 8.87748 15.1184 8.47915 14.83C8.20415 14.6309 7.94457 14.443 7.63873 14.3909C7.48957 14.3655 7.34123 14.353 7.19748 14.353C6.93915 14.353 6.73498 14.3938 6.58582 14.4234C6.4954 14.4417 6.41707 14.4571 6.3579 14.4571C6.29582 14.4571 6.22873 14.4434 6.19957 14.3413C6.17415 14.253 6.15582 14.1671 6.13832 14.0842C6.0929 13.8709 6.0604 13.7392 5.97332 13.7259C4.9554 13.5646 4.66415 13.3455 4.59915 13.1892C4.58998 13.1671 4.58457 13.1446 4.58332 13.1226C4.57998 13.063 4.62165 13.0096 4.67915 13.0001C6.24373 12.7359 6.9454 11.0975 6.97498 11.028C6.97582 11.0259 6.97665 11.0242 6.97748 11.0221C7.07332 10.8234 7.09207 10.6505 7.03332 10.5092C6.92582 10.2501 6.61582 10.1401 6.38415 10.0651C6.32748 10.0467 6.27373 10.0292 6.23123 10.0121C5.76873 9.82463 5.7304 9.63255 5.74832 9.53422C5.77915 9.36713 5.99707 9.25088 6.17332 9.25088C6.22165 9.25088 6.26415 9.25963 6.29998 9.27672C6.5079 9.37672 6.6554 9.42297 6.81707 9.42297C7.04082 9.42297 7.13832 9.32672 7.14998 9.3138C7.14415 9.20547 7.13707 9.09213 7.12998 8.97505C7.08332 8.21713 7.0254 7.27547 7.25957 6.73797C7.96082 5.12672 9.44873 5.00172 9.8879 5.00172C9.89915 5.00172 10.0804 4.99963 10.0804 4.99963H10.1066C10.5471 4.99963 12.0375 5.12505 12.7396 6.73713C12.9737 7.27505 12.9158 8.21755 12.8691 8.97463L12.8671 9.00755C12.8608 9.11297 12.8541 9.21547 12.8491 9.31338C12.8604 9.32505 12.95 9.41338 13.1529 9.42172H13.1533C13.3075 9.41547 13.4496 9.3763 13.6437 9.28297C13.7004 9.25588 13.7637 9.25005 13.8071 9.25005C13.8729 9.25005 13.9396 9.26297 13.995 9.28672L13.9983 9.28838C14.1554 9.34547 14.2583 9.45838 14.2604 9.5763C14.2625 9.68713 14.1796 9.85422 13.7737 10.0184C13.7316 10.0355 13.6779 10.053 13.6208 10.0713C13.3887 10.1467 13.0737 10.2496 12.9662 10.5088C12.9075 10.6505 12.9262 10.8226 13.0221 11.0217C13.0229 11.0238 13.0237 11.0255 13.0246 11.0276C13.0537 11.0971 13.755 12.7351 15.3204 12.9992C15.3783 13.0092 15.4196 13.0617 15.4162 13.1217C15.415 13.1442 15.4096 13.1667 15.4004 13.1888C15.3358 13.3434 15.0446 13.563 14.0267 13.7242C13.9433 13.7371 13.9112 13.8484 13.8617 14.0813C13.8437 14.1659 13.8254 14.2492 13.8 14.3367C13.7783 14.4125 13.7321 14.4484 13.6542 14.4484H13.6417C13.5879 14.4484 13.5108 14.4384 13.4137 14.4188C13.2412 14.3842 13.0483 14.3525 12.8021 14.3525C12.6587 14.3525 12.51 14.3655 12.3608 14.3905C12.0554 14.4425 11.7958 14.6305 11.5216 14.8292C11.1221 15.1184 10.71 15.4167 10.0683 15.4167Z" fill="white"/>
</svg>
