<svg width="20" height="20" viewBox="0 0 20 20" fill="none" xmlns="http://www.w3.org/2000/svg">
<path d="M5 2.5C3.62919 2.5 2.5 3.62919 2.5 5V15C2.5 16.3708 3.62919 17.5 5 17.5H15C16.3708 17.5 17.5 16.3708 17.5 15V5C17.5 3.62919 16.3708 2.5 15 2.5H5ZM10 5.83333H11.6667C11.6667 6.67083 12.8925 7.5 13.3333 7.5V9.16667C12.8292 9.16667 12.2233 8.94513 11.6667 8.57096V11.6667C11.6667 13.045 10.545 14.1667 9.16667 14.1667C7.78833 14.1667 6.66667 13.045 6.66667 11.6667C6.66667 10.2883 7.78833 9.16667 9.16667 9.16667V10.8333C8.70667 10.8333 8.33333 11.2075 8.33333 11.6667C8.33333 12.1258 8.70667 12.5 9.16667 12.5C9.62667 12.5 10 12.1258 10 11.6667V5.83333Z" fill="#181D27"/>
</svg>
